<mxfile host="app.diagrams.net" agent="Mozilla/5.0 (Windows NT 10.0; Win64; x64) AppleWebKit/537.36 (KHTML, like Gecko) Chrome/134.0.0.0 Safari/537.36" version="26.1.1">
  <diagram id="R2lEEEUBdFMjLlhIrx00" name="Page-1">
    <mxGraphModel dx="1280" dy="1286" grid="1" gridSize="10" guides="1" tooltips="1" connect="1" arrows="1" fold="1" page="1" pageScale="1" pageWidth="850" pageHeight="1100" math="0" shadow="0" extFonts="Permanent Marker^https://fonts.googleapis.com/css?family=Permanent+Marker">
      <root>
        <mxCell id="0" />
        <mxCell id="1" parent="0" />
        <mxCell id="b9QeyJM_cF_FELcdpsjT-1" value="PadrÃ³n" style="rounded=1;arcSize=10;whiteSpace=wrap;html=1;align=center;" parent="1" vertex="1">
          <mxGeometry x="335" y="250" width="100" height="40" as="geometry" />
        </mxCell>
        <mxCell id="b9QeyJM_cF_FELcdpsjT-3" value="ID_CURP" style="ellipse;whiteSpace=wrap;html=1;align=center;fontStyle=4;" parent="1" vertex="1">
          <mxGeometry x="230" y="10" width="100" height="40" as="geometry" />
        </mxCell>
        <mxCell id="b9QeyJM_cF_FELcdpsjT-5" value="Nombre" style="ellipse;whiteSpace=wrap;html=1;align=center;" parent="1" vertex="1">
          <mxGeometry x="250" y="370" width="100" height="40" as="geometry" />
        </mxCell>
        <mxCell id="b9QeyJM_cF_FELcdpsjT-6" value="Fecha_Nacimiento" style="ellipse;whiteSpace=wrap;html=1;align=center;" parent="1" vertex="1">
          <mxGeometry x="115" y="210" width="100" height="40" as="geometry" />
        </mxCell>
        <mxCell id="b9QeyJM_cF_FELcdpsjT-7" value="ApellidoM" style="ellipse;whiteSpace=wrap;html=1;align=center;" parent="1" vertex="1">
          <mxGeometry x="90" y="120" width="100" height="40" as="geometry" />
        </mxCell>
        <mxCell id="b9QeyJM_cF_FELcdpsjT-11" value="Nombre_Padre" style="ellipse;whiteSpace=wrap;html=1;align=center;" parent="1" vertex="1">
          <mxGeometry x="190" y="280" width="100" height="40" as="geometry" />
        </mxCell>
        <mxCell id="b9QeyJM_cF_FELcdpsjT-13" value="Municipio_Radica" style="ellipse;whiteSpace=wrap;html=1;align=center;" parent="1" vertex="1">
          <mxGeometry x="520" y="115" width="100" height="40" as="geometry" />
        </mxCell>
        <mxCell id="b9QeyJM_cF_FELcdpsjT-14" value="Telefono" style="ellipse;whiteSpace=wrap;html=1;align=center;" parent="1" vertex="1">
          <mxGeometry x="210" y="320" width="100" height="40" as="geometry" />
        </mxCell>
        <mxCell id="b9QeyJM_cF_FELcdpsjT-15" value="" style="endArrow=none;html=1;rounded=0;entryX=0;entryY=0.5;entryDx=0;entryDy=0;" parent="1" source="b9QeyJM_cF_FELcdpsjT-5" target="b9QeyJM_cF_FELcdpsjT-1" edge="1">
          <mxGeometry relative="1" as="geometry">
            <mxPoint x="460" y="330" as="sourcePoint" />
            <mxPoint x="620" y="330" as="targetPoint" />
          </mxGeometry>
        </mxCell>
        <mxCell id="b9QeyJM_cF_FELcdpsjT-18" value="" style="endArrow=none;html=1;rounded=0;exitX=0.5;exitY=0;exitDx=0;exitDy=0;" parent="1" source="b9QeyJM_cF_FELcdpsjT-1" target="b9QeyJM_cF_FELcdpsjT-13" edge="1">
          <mxGeometry relative="1" as="geometry">
            <mxPoint x="410" y="250" as="sourcePoint" />
            <mxPoint x="620" y="330" as="targetPoint" />
          </mxGeometry>
        </mxCell>
        <mxCell id="b9QeyJM_cF_FELcdpsjT-23" value="" style="endArrow=none;html=1;rounded=0;entryX=1;entryY=1;entryDx=0;entryDy=0;exitX=0.5;exitY=0;exitDx=0;exitDy=0;" parent="1" source="b9QeyJM_cF_FELcdpsjT-1" target="b9QeyJM_cF_FELcdpsjT-3" edge="1">
          <mxGeometry relative="1" as="geometry">
            <mxPoint x="480" y="290" as="sourcePoint" />
            <mxPoint x="574" y="227" as="targetPoint" />
          </mxGeometry>
        </mxCell>
        <mxCell id="b9QeyJM_cF_FELcdpsjT-25" value="" style="endArrow=none;html=1;rounded=0;entryX=0.969;entryY=0.637;entryDx=0;entryDy=0;entryPerimeter=0;exitX=0.5;exitY=0;exitDx=0;exitDy=0;" parent="1" source="b9QeyJM_cF_FELcdpsjT-1" target="b9QeyJM_cF_FELcdpsjT-6" edge="1">
          <mxGeometry relative="1" as="geometry">
            <mxPoint x="490" y="300" as="sourcePoint" />
            <mxPoint x="584" y="237" as="targetPoint" />
          </mxGeometry>
        </mxCell>
        <mxCell id="b9QeyJM_cF_FELcdpsjT-26" value="" style="endArrow=none;html=1;rounded=0;entryX=1;entryY=1;entryDx=0;entryDy=0;exitX=0.5;exitY=0;exitDx=0;exitDy=0;" parent="1" source="b9QeyJM_cF_FELcdpsjT-1" target="b9QeyJM_cF_FELcdpsjT-7" edge="1">
          <mxGeometry relative="1" as="geometry">
            <mxPoint x="410" y="250" as="sourcePoint" />
            <mxPoint x="594" y="247" as="targetPoint" />
          </mxGeometry>
        </mxCell>
        <mxCell id="b9QeyJM_cF_FELcdpsjT-28" value="" style="endArrow=none;html=1;rounded=0;exitX=1;exitY=0.5;exitDx=0;exitDy=0;entryX=0;entryY=0.5;entryDx=0;entryDy=0;" parent="1" source="b9QeyJM_cF_FELcdpsjT-11" target="b9QeyJM_cF_FELcdpsjT-1" edge="1">
          <mxGeometry relative="1" as="geometry">
            <mxPoint x="520" y="330" as="sourcePoint" />
            <mxPoint x="360" y="270" as="targetPoint" />
          </mxGeometry>
        </mxCell>
        <mxCell id="b9QeyJM_cF_FELcdpsjT-30" value="" style="endArrow=none;html=1;rounded=0;exitX=1;exitY=0;exitDx=0;exitDy=0;entryX=0;entryY=0.5;entryDx=0;entryDy=0;" parent="1" source="b9QeyJM_cF_FELcdpsjT-14" target="b9QeyJM_cF_FELcdpsjT-1" edge="1">
          <mxGeometry relative="1" as="geometry">
            <mxPoint x="530" y="340" as="sourcePoint" />
            <mxPoint x="624" y="277" as="targetPoint" />
          </mxGeometry>
        </mxCell>
        <mxCell id="b9QeyJM_cF_FELcdpsjT-42" value="Domicilio" style="whiteSpace=wrap;html=1;align=center;" parent="1" vertex="1">
          <mxGeometry x="570" y="460" width="100" height="40" as="geometry" />
        </mxCell>
        <mxCell id="b9QeyJM_cF_FELcdpsjT-45" value="Calle" style="ellipse;whiteSpace=wrap;html=1;align=center;" parent="1" vertex="1">
          <mxGeometry x="460" y="540" width="100" height="40" as="geometry" />
        </mxCell>
        <mxCell id="b9QeyJM_cF_FELcdpsjT-46" value="Numero_Interior" style="ellipse;whiteSpace=wrap;html=1;align=center;" parent="1" vertex="1">
          <mxGeometry x="460" y="500" width="100" height="40" as="geometry" />
        </mxCell>
        <mxCell id="b9QeyJM_cF_FELcdpsjT-49" value="Numero_Exterior" style="ellipse;whiteSpace=wrap;html=1;align=center;" parent="1" vertex="1">
          <mxGeometry x="660" y="550" width="100" height="40" as="geometry" />
        </mxCell>
        <mxCell id="b9QeyJM_cF_FELcdpsjT-50" value="Colonia" style="ellipse;whiteSpace=wrap;html=1;align=center;" parent="1" vertex="1">
          <mxGeometry x="550" y="560" width="100" height="40" as="geometry" />
        </mxCell>
        <mxCell id="b9QeyJM_cF_FELcdpsjT-51" value="" style="endArrow=none;html=1;rounded=0;exitX=1;exitY=0;exitDx=0;exitDy=0;entryX=0.6;entryY=1;entryDx=0;entryDy=0;entryPerimeter=0;" parent="1" source="b9QeyJM_cF_FELcdpsjT-45" target="b9QeyJM_cF_FELcdpsjT-42" edge="1">
          <mxGeometry relative="1" as="geometry">
            <mxPoint x="530" y="520" as="sourcePoint" />
            <mxPoint x="620" y="510" as="targetPoint" />
          </mxGeometry>
        </mxCell>
        <mxCell id="b9QeyJM_cF_FELcdpsjT-57" value="" style="endArrow=none;html=1;rounded=0;exitX=0.257;exitY=0.039;exitDx=0;exitDy=0;exitPerimeter=0;entryX=0.56;entryY=0.999;entryDx=0;entryDy=0;entryPerimeter=0;" parent="1" source="b9QeyJM_cF_FELcdpsjT-50" target="b9QeyJM_cF_FELcdpsjT-42" edge="1">
          <mxGeometry relative="1" as="geometry">
            <mxPoint x="720" y="560" as="sourcePoint" />
            <mxPoint x="624" y="499" as="targetPoint" />
          </mxGeometry>
        </mxCell>
        <mxCell id="b9QeyJM_cF_FELcdpsjT-58" value="" style="endArrow=none;html=1;rounded=0;exitX=0.5;exitY=0;exitDx=0;exitDy=0;" parent="1" source="b9QeyJM_cF_FELcdpsjT-49" edge="1">
          <mxGeometry relative="1" as="geometry">
            <mxPoint x="565" y="566" as="sourcePoint" />
            <mxPoint x="630" y="500" as="targetPoint" />
          </mxGeometry>
        </mxCell>
        <mxCell id="b9QeyJM_cF_FELcdpsjT-59" value="" style="endArrow=none;html=1;rounded=0;exitX=1;exitY=0.5;exitDx=0;exitDy=0;entryX=0.61;entryY=1.025;entryDx=0;entryDy=0;entryPerimeter=0;" parent="1" source="b9QeyJM_cF_FELcdpsjT-46" target="b9QeyJM_cF_FELcdpsjT-42" edge="1">
          <mxGeometry relative="1" as="geometry">
            <mxPoint x="575" y="576" as="sourcePoint" />
            <mxPoint x="620" y="510" as="targetPoint" />
            <Array as="points" />
          </mxGeometry>
        </mxCell>
        <mxCell id="b9QeyJM_cF_FELcdpsjT-60" value="Vive_En" style="shape=rhombus;perimeter=rhombusPerimeter;whiteSpace=wrap;html=1;align=center;" parent="1" vertex="1">
          <mxGeometry x="560" y="330" width="120" height="60" as="geometry" />
        </mxCell>
        <mxCell id="b9QeyJM_cF_FELcdpsjT-61" value="" style="endArrow=none;html=1;rounded=0;entryX=0.5;entryY=1;entryDx=0;entryDy=0;exitX=0.5;exitY=0;exitDx=0;exitDy=0;" parent="1" source="b9QeyJM_cF_FELcdpsjT-42" target="b9QeyJM_cF_FELcdpsjT-60" edge="1">
          <mxGeometry relative="1" as="geometry">
            <mxPoint x="380" y="410" as="sourcePoint" />
            <mxPoint x="540" y="410" as="targetPoint" />
          </mxGeometry>
        </mxCell>
        <mxCell id="vlWLqdfvvmI38JezlnJS-111" value="1" style="edgeLabel;html=1;align=center;verticalAlign=middle;resizable=0;points=[];" parent="b9QeyJM_cF_FELcdpsjT-61" vertex="1" connectable="0">
          <mxGeometry x="-0.0571" y="1" relative="1" as="geometry">
            <mxPoint as="offset" />
          </mxGeometry>
        </mxCell>
        <mxCell id="b9QeyJM_cF_FELcdpsjT-63" value="" style="endArrow=none;html=1;rounded=0;entryX=0;entryY=0.5;entryDx=0;entryDy=0;exitX=1;exitY=0.5;exitDx=0;exitDy=0;" parent="1" source="b9QeyJM_cF_FELcdpsjT-1" target="b9QeyJM_cF_FELcdpsjT-60" edge="1">
          <mxGeometry relative="1" as="geometry">
            <mxPoint x="610" y="260" as="sourcePoint" />
            <mxPoint x="630" y="400" as="targetPoint" />
            <Array as="points">
              <mxPoint x="435" y="360" />
            </Array>
          </mxGeometry>
        </mxCell>
        <mxCell id="vlWLqdfvvmI38JezlnJS-116" value="1" style="edgeLabel;html=1;align=center;verticalAlign=middle;resizable=0;points=[];" parent="b9QeyJM_cF_FELcdpsjT-63" vertex="1" connectable="0">
          <mxGeometry x="0.0044" relative="1" as="geometry">
            <mxPoint as="offset" />
          </mxGeometry>
        </mxCell>
        <mxCell id="b9QeyJM_cF_FELcdpsjT-64" value="Localidad" style="whiteSpace=wrap;html=1;align=center;" parent="1" vertex="1">
          <mxGeometry x="870" y="460" width="100" height="40" as="geometry" />
        </mxCell>
        <mxCell id="b9QeyJM_cF_FELcdpsjT-65" value="Pertenece" style="shape=rhombus;perimeter=rhombusPerimeter;whiteSpace=wrap;html=1;align=center;" parent="1" vertex="1">
          <mxGeometry x="710" y="450" width="120" height="60" as="geometry" />
        </mxCell>
        <mxCell id="b9QeyJM_cF_FELcdpsjT-66" value="" style="endArrow=none;html=1;rounded=0;entryX=0;entryY=0.5;entryDx=0;entryDy=0;" parent="1" source="b9QeyJM_cF_FELcdpsjT-42" target="b9QeyJM_cF_FELcdpsjT-65" edge="1">
          <mxGeometry relative="1" as="geometry">
            <mxPoint x="670" y="480" as="sourcePoint" />
            <mxPoint x="830" y="480" as="targetPoint" />
          </mxGeometry>
        </mxCell>
        <mxCell id="vlWLqdfvvmI38JezlnJS-113" value="1" style="edgeLabel;html=1;align=center;verticalAlign=middle;resizable=0;points=[];" parent="b9QeyJM_cF_FELcdpsjT-66" vertex="1" connectable="0">
          <mxGeometry x="0.02" y="2" relative="1" as="geometry">
            <mxPoint as="offset" />
          </mxGeometry>
        </mxCell>
        <mxCell id="b9QeyJM_cF_FELcdpsjT-67" value="" style="endArrow=none;html=1;rounded=0;entryX=0;entryY=0.5;entryDx=0;entryDy=0;" parent="1" target="b9QeyJM_cF_FELcdpsjT-64" edge="1">
          <mxGeometry relative="1" as="geometry">
            <mxPoint x="830" y="480" as="sourcePoint" />
            <mxPoint x="860" y="480" as="targetPoint" />
          </mxGeometry>
        </mxCell>
        <mxCell id="vlWLqdfvvmI38JezlnJS-114" value="N" style="edgeLabel;html=1;align=center;verticalAlign=middle;resizable=0;points=[];" parent="b9QeyJM_cF_FELcdpsjT-67" vertex="1" connectable="0">
          <mxGeometry x="-0.28" y="-3" relative="1" as="geometry">
            <mxPoint as="offset" />
          </mxGeometry>
        </mxCell>
        <mxCell id="b9QeyJM_cF_FELcdpsjT-68" value="ID_Localidad" style="ellipse;whiteSpace=wrap;html=1;align=center;" parent="1" vertex="1">
          <mxGeometry x="870" y="560" width="100" height="40" as="geometry" />
        </mxCell>
        <mxCell id="b9QeyJM_cF_FELcdpsjT-71" value="" style="endArrow=none;html=1;rounded=0;entryX=0.43;entryY=-0.058;entryDx=0;entryDy=0;entryPerimeter=0;exitX=0.5;exitY=1;exitDx=0;exitDy=0;" parent="1" source="b9QeyJM_cF_FELcdpsjT-64" target="b9QeyJM_cF_FELcdpsjT-68" edge="1">
          <mxGeometry relative="1" as="geometry">
            <mxPoint x="900" y="500" as="sourcePoint" />
            <mxPoint x="1060" y="500" as="targetPoint" />
          </mxGeometry>
        </mxCell>
        <mxCell id="b9QeyJM_cF_FELcdpsjT-72" value="Nombre_Localidad" style="ellipse;whiteSpace=wrap;html=1;align=center;" parent="1" vertex="1">
          <mxGeometry x="780" y="540" width="100" height="40" as="geometry" />
        </mxCell>
        <mxCell id="b9QeyJM_cF_FELcdpsjT-73" value="" style="endArrow=none;html=1;rounded=0;entryX=0.5;entryY=1;entryDx=0;entryDy=0;" parent="1" source="b9QeyJM_cF_FELcdpsjT-72" target="b9QeyJM_cF_FELcdpsjT-64" edge="1">
          <mxGeometry relative="1" as="geometry">
            <mxPoint x="720" y="620" as="sourcePoint" />
            <mxPoint x="880" y="620" as="targetPoint" />
          </mxGeometry>
        </mxCell>
        <mxCell id="vlWLqdfvvmI38JezlnJS-1" value="Usuario" style="rounded=1;arcSize=10;whiteSpace=wrap;html=1;align=center;" parent="1" vertex="1">
          <mxGeometry x="810" y="175" width="100" height="40" as="geometry" />
        </mxCell>
        <mxCell id="vlWLqdfvvmI38JezlnJS-2" value="ID_Usuario" style="ellipse;whiteSpace=wrap;html=1;align=center;fontStyle=4;" parent="1" vertex="1">
          <mxGeometry x="820" y="65" width="100" height="40" as="geometry" />
        </mxCell>
        <mxCell id="vlWLqdfvvmI38JezlnJS-4" value="Nombre" style="ellipse;whiteSpace=wrap;html=1;align=center;" parent="1" vertex="1">
          <mxGeometry x="660" y="145" width="100" height="40" as="geometry" />
        </mxCell>
        <mxCell id="vlWLqdfvvmI38JezlnJS-5" value="Tipo_Usuario" style="ellipse;whiteSpace=wrap;html=1;align=center;" parent="1" vertex="1">
          <mxGeometry x="670" y="105" width="100" height="40" as="geometry" />
        </mxCell>
        <mxCell id="vlWLqdfvvmI38JezlnJS-6" value="Usuario" style="ellipse;whiteSpace=wrap;html=1;align=center;" parent="1" vertex="1">
          <mxGeometry x="720" y="70" width="100" height="40" as="geometry" />
        </mxCell>
        <mxCell id="vlWLqdfvvmI38JezlnJS-7" value="ContraseÃ±a" style="ellipse;whiteSpace=wrap;html=1;align=center;" parent="1" vertex="1">
          <mxGeometry x="630" y="185" width="100" height="40" as="geometry" />
        </mxCell>
        <mxCell id="vlWLqdfvvmI38JezlnJS-9" value="" style="endArrow=none;html=1;rounded=0;entryX=0.5;entryY=0;entryDx=0;entryDy=0;exitX=0.761;exitY=0.92;exitDx=0;exitDy=0;exitPerimeter=0;" parent="1" source="vlWLqdfvvmI38JezlnJS-5" target="vlWLqdfvvmI38JezlnJS-1" edge="1">
          <mxGeometry relative="1" as="geometry">
            <mxPoint x="770" y="155" as="sourcePoint" />
            <mxPoint x="930" y="155" as="targetPoint" />
          </mxGeometry>
        </mxCell>
        <mxCell id="vlWLqdfvvmI38JezlnJS-11" value="" style="endArrow=none;html=1;rounded=0;exitX=1;exitY=1;exitDx=0;exitDy=0;entryX=0.5;entryY=0;entryDx=0;entryDy=0;" parent="1" source="vlWLqdfvvmI38JezlnJS-6" target="vlWLqdfvvmI38JezlnJS-1" edge="1">
          <mxGeometry relative="1" as="geometry">
            <mxPoint x="786" y="162" as="sourcePoint" />
            <mxPoint x="860" y="195" as="targetPoint" />
          </mxGeometry>
        </mxCell>
        <mxCell id="vlWLqdfvvmI38JezlnJS-13" value="" style="endArrow=none;html=1;rounded=0;entryX=0.5;entryY=0;entryDx=0;entryDy=0;exitX=0.5;exitY=1;exitDx=0;exitDy=0;" parent="1" source="vlWLqdfvvmI38JezlnJS-2" target="vlWLqdfvvmI38JezlnJS-1" edge="1">
          <mxGeometry relative="1" as="geometry">
            <mxPoint x="796" y="172" as="sourcePoint" />
            <mxPoint x="880" y="215" as="targetPoint" />
          </mxGeometry>
        </mxCell>
        <mxCell id="vlWLqdfvvmI38JezlnJS-15" value="" style="endArrow=none;html=1;rounded=0;entryX=0;entryY=0.5;entryDx=0;entryDy=0;exitX=1;exitY=0.5;exitDx=0;exitDy=0;" parent="1" source="vlWLqdfvvmI38JezlnJS-4" target="vlWLqdfvvmI38JezlnJS-1" edge="1">
          <mxGeometry relative="1" as="geometry">
            <mxPoint x="880" y="115" as="sourcePoint" />
            <mxPoint x="870" y="205" as="targetPoint" />
          </mxGeometry>
        </mxCell>
        <mxCell id="vlWLqdfvvmI38JezlnJS-16" value="" style="endArrow=none;html=1;rounded=0;entryX=0;entryY=0.5;entryDx=0;entryDy=0;exitX=1;exitY=0.5;exitDx=0;exitDy=0;" parent="1" source="vlWLqdfvvmI38JezlnJS-7" target="vlWLqdfvvmI38JezlnJS-1" edge="1">
          <mxGeometry relative="1" as="geometry">
            <mxPoint x="890" y="125" as="sourcePoint" />
            <mxPoint x="880" y="215" as="targetPoint" />
            <Array as="points" />
          </mxGeometry>
        </mxCell>
        <mxCell id="vlWLqdfvvmI38JezlnJS-22" value="Asociaciones" style="rounded=1;arcSize=10;whiteSpace=wrap;html=1;align=center;" parent="1" vertex="1">
          <mxGeometry x="-90" y="440" width="100" height="40" as="geometry" />
        </mxCell>
        <mxCell id="vlWLqdfvvmI38JezlnJS-23" value="Nombre_Asociacion" style="ellipse;whiteSpace=wrap;html=1;align=center;fontStyle=0" parent="1" vertex="1">
          <mxGeometry x="-200" y="320" width="120" height="60" as="geometry" />
        </mxCell>
        <mxCell id="vlWLqdfvvmI38JezlnJS-24" value="ID_Asociacion" style="ellipse;whiteSpace=wrap;html=1;align=center;fontStyle=4;" parent="1" vertex="1">
          <mxGeometry x="-110" y="290" width="100" height="40" as="geometry" />
        </mxCell>
        <mxCell id="vlWLqdfvvmI38JezlnJS-25" value="Domicilio" style="ellipse;whiteSpace=wrap;html=1;align=center;fontStyle=0" parent="1" vertex="1">
          <mxGeometry x="-290" y="360" width="100" height="40" as="geometry" />
        </mxCell>
        <mxCell id="vlWLqdfvvmI38JezlnJS-26" value="Telefono" style="ellipse;whiteSpace=wrap;html=1;align=center;fontStyle=0" parent="1" vertex="1">
          <mxGeometry x="-250" y="400" width="100" height="40" as="geometry" />
        </mxCell>
        <mxCell id="vlWLqdfvvmI38JezlnJS-27" value="Contacto" style="ellipse;whiteSpace=wrap;html=1;align=center;fontStyle=0" parent="1" vertex="1">
          <mxGeometry x="-20" y="315" width="100" height="40" as="geometry" />
        </mxCell>
        <mxCell id="vlWLqdfvvmI38JezlnJS-29" value="" style="endArrow=none;html=1;rounded=0;entryX=0.5;entryY=0;entryDx=0;entryDy=0;exitX=1;exitY=0.5;exitDx=0;exitDy=0;" parent="1" source="vlWLqdfvvmI38JezlnJS-26" target="vlWLqdfvvmI38JezlnJS-22" edge="1">
          <mxGeometry relative="1" as="geometry">
            <mxPoint x="-190" y="240" as="sourcePoint" />
            <mxPoint x="-30" y="240" as="targetPoint" />
          </mxGeometry>
        </mxCell>
        <mxCell id="vlWLqdfvvmI38JezlnJS-30" value="" style="endArrow=none;html=1;rounded=0;entryX=0.5;entryY=0;entryDx=0;entryDy=0;exitX=1;exitY=1;exitDx=0;exitDy=0;" parent="1" source="vlWLqdfvvmI38JezlnJS-25" target="vlWLqdfvvmI38JezlnJS-22" edge="1">
          <mxGeometry relative="1" as="geometry">
            <mxPoint x="-170" y="240" as="sourcePoint" />
            <mxPoint x="-100" y="260" as="targetPoint" />
          </mxGeometry>
        </mxCell>
        <mxCell id="vlWLqdfvvmI38JezlnJS-31" value="" style="endArrow=none;html=1;rounded=0;entryX=0.5;entryY=0;entryDx=0;entryDy=0;exitX=1;exitY=1;exitDx=0;exitDy=0;" parent="1" source="vlWLqdfvvmI38JezlnJS-23" target="vlWLqdfvvmI38JezlnJS-22" edge="1">
          <mxGeometry relative="1" as="geometry">
            <mxPoint x="-160" y="250" as="sourcePoint" />
            <mxPoint x="-90" y="270" as="targetPoint" />
          </mxGeometry>
        </mxCell>
        <mxCell id="vlWLqdfvvmI38JezlnJS-32" value="" style="endArrow=none;html=1;rounded=0;entryX=0.5;entryY=0;entryDx=0;entryDy=0;exitX=0.5;exitY=1;exitDx=0;exitDy=0;" parent="1" source="vlWLqdfvvmI38JezlnJS-24" target="vlWLqdfvvmI38JezlnJS-22" edge="1">
          <mxGeometry relative="1" as="geometry">
            <mxPoint x="-150" y="260" as="sourcePoint" />
            <mxPoint x="-80" y="280" as="targetPoint" />
          </mxGeometry>
        </mxCell>
        <mxCell id="vlWLqdfvvmI38JezlnJS-33" value="" style="endArrow=none;html=1;rounded=0;entryX=0.5;entryY=0;entryDx=0;entryDy=0;exitX=0.5;exitY=1;exitDx=0;exitDy=0;" parent="1" source="vlWLqdfvvmI38JezlnJS-27" target="vlWLqdfvvmI38JezlnJS-22" edge="1">
          <mxGeometry relative="1" as="geometry">
            <mxPoint x="-140" y="270" as="sourcePoint" />
            <mxPoint x="-70" y="290" as="targetPoint" />
          </mxGeometry>
        </mxCell>
        <mxCell id="vlWLqdfvvmI38JezlnJS-35" value="Tiene_Acceso" style="shape=rhombus;perimeter=rhombusPerimeter;whiteSpace=wrap;html=1;align=center;" parent="1" vertex="1">
          <mxGeometry x="325" y="430" width="120" height="60" as="geometry" />
        </mxCell>
        <mxCell id="vlWLqdfvvmI38JezlnJS-38" value="" style="endArrow=none;html=1;rounded=0;entryX=1;entryY=0.5;entryDx=0;entryDy=0;exitX=0;exitY=0.5;exitDx=0;exitDy=0;" parent="1" source="vlWLqdfvvmI38JezlnJS-35" target="vlWLqdfvvmI38JezlnJS-22" edge="1">
          <mxGeometry relative="1" as="geometry">
            <mxPoint x="30" y="200" as="sourcePoint" />
            <mxPoint x="-80" y="260" as="targetPoint" />
          </mxGeometry>
        </mxCell>
        <mxCell id="vlWLqdfvvmI38JezlnJS-119" value="N" style="edgeLabel;html=1;align=center;verticalAlign=middle;resizable=0;points=[];" parent="vlWLqdfvvmI38JezlnJS-38" vertex="1" connectable="0">
          <mxGeometry x="0.175" relative="1" as="geometry">
            <mxPoint as="offset" />
          </mxGeometry>
        </mxCell>
        <mxCell id="vlWLqdfvvmI38JezlnJS-39" value="" style="endArrow=none;html=1;rounded=0;entryX=0.5;entryY=0;entryDx=0;entryDy=0;exitX=0.5;exitY=1;exitDx=0;exitDy=0;" parent="1" source="b9QeyJM_cF_FELcdpsjT-1" target="vlWLqdfvvmI38JezlnJS-35" edge="1">
          <mxGeometry relative="1" as="geometry">
            <mxPoint x="40" y="210" as="sourcePoint" />
            <mxPoint x="-70" y="270" as="targetPoint" />
          </mxGeometry>
        </mxCell>
        <mxCell id="vlWLqdfvvmI38JezlnJS-120" value="M" style="edgeLabel;html=1;align=center;verticalAlign=middle;resizable=0;points=[];" parent="vlWLqdfvvmI38JezlnJS-39" vertex="1" connectable="0">
          <mxGeometry x="0.27" y="-2" relative="1" as="geometry">
            <mxPoint as="offset" />
          </mxGeometry>
        </mxCell>
        <mxCell id="vlWLqdfvvmI38JezlnJS-40" value="Tiene_Acceso" style="shape=rhombus;perimeter=rhombusPerimeter;whiteSpace=wrap;html=1;align=center;" parent="1" vertex="1">
          <mxGeometry x="630" y="240" width="120" height="60" as="geometry" />
        </mxCell>
        <mxCell id="vlWLqdfvvmI38JezlnJS-41" value="" style="endArrow=none;html=1;rounded=0;entryX=0.5;entryY=1;entryDx=0;entryDy=0;exitX=1;exitY=0.5;exitDx=0;exitDy=0;" parent="1" source="vlWLqdfvvmI38JezlnJS-40" target="vlWLqdfvvmI38JezlnJS-1" edge="1">
          <mxGeometry relative="1" as="geometry">
            <mxPoint x="470" y="280" as="sourcePoint" />
            <mxPoint x="630" y="340" as="targetPoint" />
            <Array as="points">
              <mxPoint x="860" y="270" />
            </Array>
          </mxGeometry>
        </mxCell>
        <mxCell id="vlWLqdfvvmI38JezlnJS-115" value="N" style="edgeLabel;html=1;align=center;verticalAlign=middle;resizable=0;points=[];" parent="vlWLqdfvvmI38JezlnJS-41" vertex="1" connectable="0">
          <mxGeometry x="-0.2048" y="-2" relative="1" as="geometry">
            <mxPoint as="offset" />
          </mxGeometry>
        </mxCell>
        <mxCell id="vlWLqdfvvmI38JezlnJS-46" value="" style="endArrow=none;html=1;rounded=0;entryX=0;entryY=0.5;entryDx=0;entryDy=0;exitX=1;exitY=0.5;exitDx=0;exitDy=0;" parent="1" source="b9QeyJM_cF_FELcdpsjT-1" target="vlWLqdfvvmI38JezlnJS-40" edge="1">
          <mxGeometry relative="1" as="geometry">
            <mxPoint x="420" y="260" as="sourcePoint" />
            <mxPoint x="594" y="194" as="targetPoint" />
          </mxGeometry>
        </mxCell>
        <mxCell id="vlWLqdfvvmI38JezlnJS-112" value="M" style="edgeLabel;html=1;align=center;verticalAlign=middle;resizable=0;points=[];" parent="vlWLqdfvvmI38JezlnJS-46" vertex="1" connectable="0">
          <mxGeometry x="-0.0541" y="-2" relative="1" as="geometry">
            <mxPoint as="offset" />
          </mxGeometry>
        </mxCell>
        <mxCell id="vlWLqdfvvmI38JezlnJS-58" value="Independiente" style="rounded=1;arcSize=10;whiteSpace=wrap;html=1;align=center;" parent="1" vertex="1">
          <mxGeometry x="370" y="-40" width="100" height="40" as="geometry" />
        </mxCell>
        <mxCell id="vlWLqdfvvmI38JezlnJS-59" value="cedula_prof" style="ellipse;whiteSpace=wrap;html=1;align=center;fontStyle=4;" parent="1" vertex="1">
          <mxGeometry x="380" y="-150" width="100" height="40" as="geometry" />
        </mxCell>
        <mxCell id="vlWLqdfvvmI38JezlnJS-60" value="Nombre_Independiente" style="ellipse;whiteSpace=wrap;html=1;align=center;" parent="1" vertex="1">
          <mxGeometry x="470" y="-135" width="130" height="40" as="geometry" />
        </mxCell>
        <mxCell id="vlWLqdfvvmI38JezlnJS-61" value="Genero" style="ellipse;whiteSpace=wrap;html=1;align=center;" parent="1" vertex="1">
          <mxGeometry x="280" y="-140" width="100" height="40" as="geometry" />
        </mxCell>
        <mxCell id="vlWLqdfvvmI38JezlnJS-62" value="profesion" style="ellipse;whiteSpace=wrap;html=1;align=center;" parent="1" vertex="1">
          <mxGeometry x="540" y="-100" width="100" height="40" as="geometry" />
        </mxCell>
        <mxCell id="vlWLqdfvvmI38JezlnJS-63" value="" style="endArrow=none;html=1;rounded=0;entryX=0.5;entryY=0;entryDx=0;entryDy=0;exitX=0.783;exitY=0.892;exitDx=0;exitDy=0;exitPerimeter=0;" parent="1" source="vlWLqdfvvmI38JezlnJS-69" target="vlWLqdfvvmI38JezlnJS-58" edge="1">
          <mxGeometry relative="1" as="geometry">
            <mxPoint x="306" y="-63" as="sourcePoint" />
            <mxPoint x="490" y="-60" as="targetPoint" />
          </mxGeometry>
        </mxCell>
        <mxCell id="vlWLqdfvvmI38JezlnJS-64" value="" style="endArrow=none;html=1;rounded=0;exitX=1;exitY=1;exitDx=0;exitDy=0;entryX=0.5;entryY=0;entryDx=0;entryDy=0;" parent="1" source="vlWLqdfvvmI38JezlnJS-61" target="vlWLqdfvvmI38JezlnJS-58" edge="1">
          <mxGeometry relative="1" as="geometry">
            <mxPoint x="346" y="-53" as="sourcePoint" />
            <mxPoint x="420" y="-20" as="targetPoint" />
          </mxGeometry>
        </mxCell>
        <mxCell id="vlWLqdfvvmI38JezlnJS-65" value="" style="endArrow=none;html=1;rounded=0;entryX=0.5;entryY=0;entryDx=0;entryDy=0;exitX=0.5;exitY=1;exitDx=0;exitDy=0;" parent="1" source="vlWLqdfvvmI38JezlnJS-59" target="vlWLqdfvvmI38JezlnJS-58" edge="1">
          <mxGeometry relative="1" as="geometry">
            <mxPoint x="356" y="-43" as="sourcePoint" />
            <mxPoint x="440" as="targetPoint" />
          </mxGeometry>
        </mxCell>
        <mxCell id="vlWLqdfvvmI38JezlnJS-66" value="" style="endArrow=none;html=1;rounded=0;entryX=0.5;entryY=0;entryDx=0;entryDy=0;exitX=0.5;exitY=1;exitDx=0;exitDy=0;" parent="1" source="vlWLqdfvvmI38JezlnJS-60" target="vlWLqdfvvmI38JezlnJS-58" edge="1">
          <mxGeometry relative="1" as="geometry">
            <mxPoint x="440" y="-100" as="sourcePoint" />
            <mxPoint x="430" y="-10" as="targetPoint" />
          </mxGeometry>
        </mxCell>
        <mxCell id="vlWLqdfvvmI38JezlnJS-67" value="" style="endArrow=none;html=1;rounded=0;entryX=0.5;entryY=0;entryDx=0;entryDy=0;exitX=0.5;exitY=1;exitDx=0;exitDy=0;" parent="1" source="vlWLqdfvvmI38JezlnJS-62" target="vlWLqdfvvmI38JezlnJS-58" edge="1">
          <mxGeometry relative="1" as="geometry">
            <mxPoint x="450" y="-90" as="sourcePoint" />
            <mxPoint x="440" as="targetPoint" />
          </mxGeometry>
        </mxCell>
        <mxCell id="vlWLqdfvvmI38JezlnJS-69" value="Fecha_Nacimiento" style="ellipse;whiteSpace=wrap;html=1;align=center;" parent="1" vertex="1">
          <mxGeometry x="235" y="-100" width="100" height="40" as="geometry" />
        </mxCell>
        <mxCell id="vlWLqdfvvmI38JezlnJS-70" value="Sexo" style="ellipse;whiteSpace=wrap;html=1;align=center;" parent="1" vertex="1">
          <mxGeometry x="25" y="70" width="100" height="40" as="geometry" />
        </mxCell>
        <mxCell id="vlWLqdfvvmI38JezlnJS-72" value="" style="endArrow=none;html=1;rounded=0;entryX=1;entryY=0.5;entryDx=0;entryDy=0;exitX=0.5;exitY=0;exitDx=0;exitDy=0;" parent="1" source="b9QeyJM_cF_FELcdpsjT-1" target="vlWLqdfvvmI38JezlnJS-70" edge="1">
          <mxGeometry relative="1" as="geometry">
            <mxPoint x="430" y="270" as="sourcePoint" />
            <mxPoint x="305" y="84" as="targetPoint" />
          </mxGeometry>
        </mxCell>
        <mxCell id="vlWLqdfvvmI38JezlnJS-73" value="Accesa" style="shape=rhombus;perimeter=rhombusPerimeter;whiteSpace=wrap;html=1;align=center;" parent="1" vertex="1">
          <mxGeometry x="360" y="85" width="120" height="60" as="geometry" />
        </mxCell>
        <mxCell id="vlWLqdfvvmI38JezlnJS-74" value="" style="endArrow=none;html=1;rounded=0;entryX=0.5;entryY=1;entryDx=0;entryDy=0;exitX=0.5;exitY=0;exitDx=0;exitDy=0;" parent="1" source="vlWLqdfvvmI38JezlnJS-73" target="vlWLqdfvvmI38JezlnJS-58" edge="1">
          <mxGeometry relative="1" as="geometry">
            <mxPoint x="420" y="260" as="sourcePoint" />
            <mxPoint x="535" y="130" as="targetPoint" />
          </mxGeometry>
        </mxCell>
        <mxCell id="vlWLqdfvvmI38JezlnJS-118" value="M" style="edgeLabel;html=1;align=center;verticalAlign=middle;resizable=0;points=[];" parent="vlWLqdfvvmI38JezlnJS-74" vertex="1" connectable="0">
          <mxGeometry x="0.0024" y="4" relative="1" as="geometry">
            <mxPoint as="offset" />
          </mxGeometry>
        </mxCell>
        <mxCell id="vlWLqdfvvmI38JezlnJS-75" value="" style="endArrow=none;html=1;rounded=0;entryX=0.5;entryY=1;entryDx=0;entryDy=0;exitX=0.5;exitY=0;exitDx=0;exitDy=0;" parent="1" source="b9QeyJM_cF_FELcdpsjT-1" target="vlWLqdfvvmI38JezlnJS-73" edge="1">
          <mxGeometry relative="1" as="geometry">
            <mxPoint x="410" y="250" as="sourcePoint" />
            <mxPoint x="545" y="140" as="targetPoint" />
          </mxGeometry>
        </mxCell>
        <mxCell id="vlWLqdfvvmI38JezlnJS-117" value="N" style="edgeLabel;html=1;align=center;verticalAlign=middle;resizable=0;points=[];" parent="vlWLqdfvvmI38JezlnJS-75" vertex="1" connectable="0">
          <mxGeometry x="0.1238" y="-4" relative="1" as="geometry">
            <mxPoint as="offset" />
          </mxGeometry>
        </mxCell>
        <mxCell id="vlWLqdfvvmI38JezlnJS-86" value="Evento" style="rounded=1;arcSize=10;whiteSpace=wrap;html=1;align=center;" parent="1" vertex="1">
          <mxGeometry x="932.5" y="-60" width="100" height="40" as="geometry" />
        </mxCell>
        <mxCell id="vlWLqdfvvmI38JezlnJS-87" value="&lt;span style=&quot;text-align: left;&quot;&gt;ID_Evento&lt;/span&gt;" style="ellipse;whiteSpace=wrap;html=1;align=center;fontStyle=4;" parent="1" vertex="1">
          <mxGeometry x="952.5" y="-155" width="100" height="40" as="geometry" />
        </mxCell>
        <mxCell id="vlWLqdfvvmI38JezlnJS-88" value="Tema" style="ellipse;whiteSpace=wrap;html=1;align=center;" parent="1" vertex="1">
          <mxGeometry x="1042.5" y="-135" width="100" height="40" as="geometry" />
        </mxCell>
        <mxCell id="vlWLqdfvvmI38JezlnJS-89" value="Nombre_Evento" style="ellipse;whiteSpace=wrap;html=1;align=center;" parent="1" vertex="1">
          <mxGeometry x="852.5" y="-145" width="100" height="40" as="geometry" />
        </mxCell>
        <mxCell id="vlWLqdfvvmI38JezlnJS-90" value="Lugar" style="ellipse;whiteSpace=wrap;html=1;align=center;" parent="1" vertex="1">
          <mxGeometry x="1112.5" y="-105" width="100" height="40" as="geometry" />
        </mxCell>
        <mxCell id="vlWLqdfvvmI38JezlnJS-91" value="" style="endArrow=none;html=1;rounded=0;entryX=0.5;entryY=0;entryDx=0;entryDy=0;exitX=0.783;exitY=0.892;exitDx=0;exitDy=0;exitPerimeter=0;" parent="1" source="vlWLqdfvvmI38JezlnJS-96" target="vlWLqdfvvmI38JezlnJS-86" edge="1">
          <mxGeometry relative="1" as="geometry">
            <mxPoint x="878.5" y="-68" as="sourcePoint" />
            <mxPoint x="1062.5" y="-65" as="targetPoint" />
          </mxGeometry>
        </mxCell>
        <mxCell id="vlWLqdfvvmI38JezlnJS-92" value="" style="endArrow=none;html=1;rounded=0;exitX=1;exitY=1;exitDx=0;exitDy=0;entryX=0.5;entryY=0;entryDx=0;entryDy=0;" parent="1" source="vlWLqdfvvmI38JezlnJS-89" target="vlWLqdfvvmI38JezlnJS-86" edge="1">
          <mxGeometry relative="1" as="geometry">
            <mxPoint x="918.5" y="-58" as="sourcePoint" />
            <mxPoint x="992.5" y="-25" as="targetPoint" />
          </mxGeometry>
        </mxCell>
        <mxCell id="vlWLqdfvvmI38JezlnJS-93" value="" style="endArrow=none;html=1;rounded=0;entryX=0.5;entryY=0;entryDx=0;entryDy=0;exitX=0.5;exitY=1;exitDx=0;exitDy=0;" parent="1" source="vlWLqdfvvmI38JezlnJS-87" target="vlWLqdfvvmI38JezlnJS-86" edge="1">
          <mxGeometry relative="1" as="geometry">
            <mxPoint x="928.5" y="-48" as="sourcePoint" />
            <mxPoint x="1012.5" y="-5" as="targetPoint" />
          </mxGeometry>
        </mxCell>
        <mxCell id="vlWLqdfvvmI38JezlnJS-94" value="" style="endArrow=none;html=1;rounded=0;entryX=0.5;entryY=0;entryDx=0;entryDy=0;exitX=0.5;exitY=1;exitDx=0;exitDy=0;" parent="1" source="vlWLqdfvvmI38JezlnJS-88" target="vlWLqdfvvmI38JezlnJS-86" edge="1">
          <mxGeometry relative="1" as="geometry">
            <mxPoint x="1012.5" y="-105" as="sourcePoint" />
            <mxPoint x="1002.5" y="-15" as="targetPoint" />
          </mxGeometry>
        </mxCell>
        <mxCell id="vlWLqdfvvmI38JezlnJS-95" value="" style="endArrow=none;html=1;rounded=0;entryX=0.5;entryY=0;entryDx=0;entryDy=0;exitX=0.5;exitY=1;exitDx=0;exitDy=0;" parent="1" source="vlWLqdfvvmI38JezlnJS-90" target="vlWLqdfvvmI38JezlnJS-86" edge="1">
          <mxGeometry relative="1" as="geometry">
            <mxPoint x="1022.5" y="-95" as="sourcePoint" />
            <mxPoint x="1012.5" y="-5" as="targetPoint" />
          </mxGeometry>
        </mxCell>
        <mxCell id="vlWLqdfvvmI38JezlnJS-96" value="Fecha_Realizacion" style="ellipse;whiteSpace=wrap;html=1;align=center;" parent="1" vertex="1">
          <mxGeometry x="807.5" y="-105" width="100" height="40" as="geometry" />
        </mxCell>
        <mxCell id="vlWLqdfvvmI38JezlnJS-98" value="Hora" style="ellipse;whiteSpace=wrap;html=1;align=center;" parent="1" vertex="1">
          <mxGeometry x="800" y="-60" width="100" height="40" as="geometry" />
        </mxCell>
        <mxCell id="vlWLqdfvvmI38JezlnJS-99" value="" style="endArrow=none;html=1;rounded=0;entryX=0;entryY=0.5;entryDx=0;entryDy=0;exitX=1;exitY=0.5;exitDx=0;exitDy=0;" parent="1" source="vlWLqdfvvmI38JezlnJS-98" target="vlWLqdfvvmI38JezlnJS-86" edge="1">
          <mxGeometry relative="1" as="geometry">
            <mxPoint x="896" y="-59" as="sourcePoint" />
            <mxPoint x="1003" y="-35" as="targetPoint" />
          </mxGeometry>
        </mxCell>
        <mxCell id="vlWLqdfvvmI38JezlnJS-125" value="&lt;table&gt;&lt;tbody&gt;&lt;tr data-end=&quot;3005&quot; data-start=&quot;2977&quot;&gt;&lt;td&gt;1:1&lt;/td&gt;&lt;/tr&gt;&lt;/tbody&gt;&lt;/table&gt;&lt;table&gt;&lt;tbody&gt;&lt;tr data-end=&quot;3037&quot; data-start=&quot;3006&quot;&gt;&lt;td&gt;&lt;/td&gt;&lt;/tr&gt;&lt;/tbody&gt;&lt;/table&gt;" style="text;html=1;align=center;verticalAlign=middle;resizable=0;points=[];autosize=1;strokeColor=none;fillColor=none;" parent="1" vertex="1">
          <mxGeometry x="595" y="300" width="50" height="40" as="geometry" />
        </mxCell>
        <mxCell id="vlWLqdfvvmI38JezlnJS-128" value="1:N" style="text;html=1;align=center;verticalAlign=middle;resizable=0;points=[];autosize=1;strokeColor=none;fillColor=none;" parent="1" vertex="1">
          <mxGeometry x="750" y="420" width="40" height="30" as="geometry" />
        </mxCell>
        <mxCell id="vlWLqdfvvmI38JezlnJS-130" value="M:N" style="text;html=1;align=center;verticalAlign=middle;resizable=0;points=[];autosize=1;strokeColor=none;fillColor=none;" parent="1" vertex="1">
          <mxGeometry x="470" y="100" width="50" height="30" as="geometry" />
        </mxCell>
        <mxCell id="vlWLqdfvvmI38JezlnJS-131" value="&lt;table&gt;&lt;tbody&gt;&lt;tr data-end=&quot;3131&quot; data-start=&quot;3100&quot;&gt;&lt;td&gt;M:N&lt;/td&gt;&lt;/tr&gt;&lt;/tbody&gt;&lt;/table&gt;&lt;table&gt;&lt;tbody&gt;&lt;tr data-end=&quot;3165&quot; data-start=&quot;3132&quot;&gt;&lt;td&gt;&lt;/td&gt;&lt;/tr&gt;&lt;/tbody&gt;&lt;/table&gt;" style="text;html=1;align=center;verticalAlign=middle;resizable=0;points=[];autosize=1;strokeColor=none;fillColor=none;" parent="1" vertex="1">
          <mxGeometry x="75" y="290" width="50" height="40" as="geometry" />
        </mxCell>
        <mxCell id="GNuf-oSZYLgP1kweKwwC-2" value="Realiza" style="rhombus;whiteSpace=wrap;html=1;" parent="1" vertex="1">
          <mxGeometry x="942.5" y="45" width="80" height="60" as="geometry" />
        </mxCell>
        <mxCell id="GNuf-oSZYLgP1kweKwwC-5" value="Tipo_Usuario" style="ellipse;whiteSpace=wrap;html=1;align=center;" parent="1" vertex="1">
          <mxGeometry x="1112.5" y="-40" width="100" height="40" as="geometry" />
        </mxCell>
        <mxCell id="GNuf-oSZYLgP1kweKwwC-17" value="foto" style="ellipse;whiteSpace=wrap;html=1;align=center;" parent="1" vertex="1">
          <mxGeometry x="125" y="-10" width="100" height="40" as="geometry" />
        </mxCell>
        <mxCell id="GNuf-oSZYLgP1kweKwwC-18" value="" style="endArrow=none;html=1;rounded=0;entryX=0.77;entryY=0.942;entryDx=0;entryDy=0;exitX=0.5;exitY=0;exitDx=0;exitDy=0;entryPerimeter=0;" parent="1" source="b9QeyJM_cF_FELcdpsjT-1" target="GNuf-oSZYLgP1kweKwwC-17" edge="1">
          <mxGeometry relative="1" as="geometry">
            <mxPoint x="420" y="260" as="sourcePoint" />
            <mxPoint x="218" y="86" as="targetPoint" />
          </mxGeometry>
        </mxCell>
        <mxCell id="GNuf-oSZYLgP1kweKwwC-19" value="" style="endArrow=none;html=1;rounded=0;entryX=0.5;entryY=0;entryDx=0;entryDy=0;exitX=0.5;exitY=1;exitDx=0;exitDy=0;" parent="1" source="GNuf-oSZYLgP1kweKwwC-2" target="vlWLqdfvvmI38JezlnJS-1" edge="1">
          <mxGeometry relative="1" as="geometry">
            <mxPoint x="880" y="115" as="sourcePoint" />
            <mxPoint x="870" y="185" as="targetPoint" />
            <Array as="points">
              <mxPoint x="990" y="175" />
            </Array>
          </mxGeometry>
        </mxCell>
        <mxCell id="GNuf-oSZYLgP1kweKwwC-20" value="" style="endArrow=none;html=1;rounded=0;entryX=0.5;entryY=0;entryDx=0;entryDy=0;exitX=0.54;exitY=0.982;exitDx=0;exitDy=0;exitPerimeter=0;" parent="1" source="vlWLqdfvvmI38JezlnJS-86" target="GNuf-oSZYLgP1kweKwwC-2" edge="1">
          <mxGeometry relative="1" as="geometry">
            <mxPoint x="997.5" y="-10" as="sourcePoint" />
            <mxPoint x="987.5" y="60" as="targetPoint" />
          </mxGeometry>
        </mxCell>
        <mxCell id="GNuf-oSZYLgP1kweKwwC-23" value="" style="endArrow=none;html=1;rounded=0;entryX=1;entryY=0.5;entryDx=0;entryDy=0;exitX=0.019;exitY=0.437;exitDx=0;exitDy=0;exitPerimeter=0;" parent="1" source="GNuf-oSZYLgP1kweKwwC-5" target="vlWLqdfvvmI38JezlnJS-86" edge="1">
          <mxGeometry relative="1" as="geometry">
            <mxPoint x="1173" y="-55" as="sourcePoint" />
            <mxPoint x="993" y="-50" as="targetPoint" />
          </mxGeometry>
        </mxCell>
        <mxCell id="GNuf-oSZYLgP1kweKwwC-24" value="Contrasena" style="ellipse;whiteSpace=wrap;html=1;align=center;" parent="1" vertex="1">
          <mxGeometry x="550" y="-50" width="100" height="40" as="geometry" />
        </mxCell>
        <mxCell id="GNuf-oSZYLgP1kweKwwC-25" value="" style="endArrow=none;html=1;rounded=0;exitX=0.109;exitY=0.225;exitDx=0;exitDy=0;exitPerimeter=0;" parent="1" source="GNuf-oSZYLgP1kweKwwC-24" edge="1">
          <mxGeometry relative="1" as="geometry">
            <mxPoint x="571" y="-17" as="sourcePoint" />
            <mxPoint x="470" y="-20" as="targetPoint" />
          </mxGeometry>
        </mxCell>
        <mxCell id="dwP22LbA6CM9TWjDSy9h-1" value="ID_Domicilio" style="ellipse;whiteSpace=wrap;html=1;align=center;fontStyle=4;" parent="1" vertex="1">
          <mxGeometry x="460" y="450" width="100" height="40" as="geometry" />
        </mxCell>
        <mxCell id="dwP22LbA6CM9TWjDSy9h-2" value="" style="endArrow=none;html=1;rounded=0;exitX=1;exitY=0.75;exitDx=0;exitDy=0;entryX=0;entryY=0.75;entryDx=0;entryDy=0;exitPerimeter=0;" parent="1" source="dwP22LbA6CM9TWjDSy9h-1" target="b9QeyJM_cF_FELcdpsjT-42" edge="1">
          <mxGeometry relative="1" as="geometry">
            <mxPoint x="720" y="560" as="sourcePoint" />
            <mxPoint x="640" y="510" as="targetPoint" />
          </mxGeometry>
        </mxCell>
        <mxCell id="zSAJrSSpQA3sfIf_E76h-1" value="Tutor" style="rounded=1;arcSize=10;whiteSpace=wrap;html=1;align=center;" parent="1" vertex="1">
          <mxGeometry x="-260" y="250" width="100" height="40" as="geometry" />
        </mxCell>
        <mxCell id="zSAJrSSpQA3sfIf_E76h-2" value="ID_CURP" style="ellipse;whiteSpace=wrap;html=1;align=center;fontStyle=4;" parent="1" vertex="1">
          <mxGeometry x="-425" y="110" width="100" height="40" as="geometry" />
        </mxCell>
        <mxCell id="zSAJrSSpQA3sfIf_E76h-3" value="" style="endArrow=none;html=1;rounded=0;entryX=0.5;entryY=0;entryDx=0;entryDy=0;" parent="1" source="zSAJrSSpQA3sfIf_E76h-2" target="zSAJrSSpQA3sfIf_E76h-1" edge="1">
          <mxGeometry relative="1" as="geometry">
            <mxPoint x="-230" y="87" as="sourcePoint" />
            <mxPoint x="-380" y="248.5" as="targetPoint" />
          </mxGeometry>
        </mxCell>
        <mxCell id="zSAJrSSpQA3sfIf_E76h-5" value="Nombre" style="ellipse;whiteSpace=wrap;html=1;align=center;" parent="1" vertex="1">
          <mxGeometry x="-360" y="65" width="100" height="40" as="geometry" />
        </mxCell>
        <mxCell id="zSAJrSSpQA3sfIf_E76h-6" value="ApellidoM" style="ellipse;whiteSpace=wrap;html=1;align=center;" parent="1" vertex="1">
          <mxGeometry x="-265" y="98.5" width="100" height="40" as="geometry" />
        </mxCell>
        <mxCell id="zSAJrSSpQA3sfIf_E76h-7" value="Telefono" style="ellipse;whiteSpace=wrap;html=1;align=center;" parent="1" vertex="1">
          <mxGeometry x="-470" y="155" width="100" height="40" as="geometry" />
        </mxCell>
        <mxCell id="zSAJrSSpQA3sfIf_E76h-8" value="Parentesco" style="ellipse;whiteSpace=wrap;html=1;align=center;" parent="1" vertex="1">
          <mxGeometry x="-490" y="198.5" width="100" height="40" as="geometry" />
        </mxCell>
        <mxCell id="zSAJrSSpQA3sfIf_E76h-9" value="" style="endArrow=none;html=1;rounded=0;entryX=0.5;entryY=0;entryDx=0;entryDy=0;exitX=0.5;exitY=1;exitDx=0;exitDy=0;" parent="1" source="zSAJrSSpQA3sfIf_E76h-5" target="zSAJrSSpQA3sfIf_E76h-1" edge="1">
          <mxGeometry relative="1" as="geometry">
            <mxPoint x="-226" y="36" as="sourcePoint" />
            <mxPoint x="-260" y="77" as="targetPoint" />
          </mxGeometry>
        </mxCell>
        <mxCell id="zSAJrSSpQA3sfIf_E76h-10" value="" style="endArrow=none;html=1;rounded=0;entryX=0.5;entryY=0;entryDx=0;entryDy=0;exitX=0.5;exitY=1;exitDx=0;exitDy=0;" parent="1" source="zSAJrSSpQA3sfIf_E76h-7" target="zSAJrSSpQA3sfIf_E76h-1" edge="1">
          <mxGeometry relative="1" as="geometry">
            <mxPoint x="-226" y="36" as="sourcePoint" />
            <mxPoint x="-260" y="77" as="targetPoint" />
          </mxGeometry>
        </mxCell>
        <mxCell id="zSAJrSSpQA3sfIf_E76h-11" value="" style="endArrow=none;html=1;rounded=0;entryX=0.5;entryY=0;entryDx=0;entryDy=0;exitX=1;exitY=0.5;exitDx=0;exitDy=0;" parent="1" source="zSAJrSSpQA3sfIf_E76h-8" target="zSAJrSSpQA3sfIf_E76h-1" edge="1">
          <mxGeometry relative="1" as="geometry">
            <mxPoint x="-216" y="46" as="sourcePoint" />
            <mxPoint x="-250" y="87" as="targetPoint" />
          </mxGeometry>
        </mxCell>
        <mxCell id="zSAJrSSpQA3sfIf_E76h-13" value="tiene" style="shape=rhombus;perimeter=rhombusPerimeter;whiteSpace=wrap;html=1;align=center;" parent="1" vertex="1">
          <mxGeometry x="-60" y="240" width="120" height="60" as="geometry" />
        </mxCell>
        <mxCell id="zSAJrSSpQA3sfIf_E76h-18" value="" style="endArrow=none;html=1;rounded=0;exitX=0;exitY=0.5;exitDx=0;exitDy=0;entryX=1;entryY=0.5;entryDx=0;entryDy=0;" parent="1" source="b9QeyJM_cF_FELcdpsjT-1" target="zSAJrSSpQA3sfIf_E76h-13" edge="1">
          <mxGeometry relative="1" as="geometry">
            <mxPoint x="360" y="262" as="sourcePoint" />
            <mxPoint y="40" as="targetPoint" />
            <Array as="points" />
          </mxGeometry>
        </mxCell>
        <mxCell id="zSAJrSSpQA3sfIf_E76h-19" value="1" style="edgeLabel;html=1;align=center;verticalAlign=middle;resizable=0;points=[];" parent="zSAJrSSpQA3sfIf_E76h-18" vertex="1" connectable="0">
          <mxGeometry x="-0.823" y="2" relative="1" as="geometry">
            <mxPoint as="offset" />
          </mxGeometry>
        </mxCell>
        <mxCell id="zSAJrSSpQA3sfIf_E76h-21" value="1:N" style="text;html=1;align=center;verticalAlign=middle;resizable=0;points=[];autosize=1;strokeColor=none;fillColor=none;" parent="1" vertex="1">
          <mxGeometry x="-60" y="-2" width="40" height="30" as="geometry" />
        </mxCell>
        <mxCell id="zSAJrSSpQA3sfIf_E76h-23" value="ApellidoP" style="ellipse;whiteSpace=wrap;html=1;align=center;" parent="1" vertex="1">
          <mxGeometry x="80" y="160" width="100" height="40" as="geometry" />
        </mxCell>
        <mxCell id="zSAJrSSpQA3sfIf_E76h-24" value="" style="endArrow=none;html=1;rounded=0;entryX=1;entryY=0.5;entryDx=0;entryDy=0;exitX=0.5;exitY=0;exitDx=0;exitDy=0;" parent="1" source="b9QeyJM_cF_FELcdpsjT-1" target="zSAJrSSpQA3sfIf_E76h-23" edge="1">
          <mxGeometry relative="1" as="geometry">
            <mxPoint x="410" y="250" as="sourcePoint" />
            <mxPoint x="185" y="164" as="targetPoint" />
          </mxGeometry>
        </mxCell>
        <mxCell id="zSAJrSSpQA3sfIf_E76h-25" value="" style="endArrow=none;html=1;rounded=0;entryX=0.5;entryY=0;entryDx=0;entryDy=0;exitX=0.5;exitY=1;exitDx=0;exitDy=0;" parent="1" source="zSAJrSSpQA3sfIf_E76h-6" target="zSAJrSSpQA3sfIf_E76h-1" edge="1">
          <mxGeometry relative="1" as="geometry">
            <mxPoint x="-152" y="66" as="sourcePoint" />
            <mxPoint x="-270" y="77" as="targetPoint" />
          </mxGeometry>
        </mxCell>
        <mxCell id="zSAJrSSpQA3sfIf_E76h-26" value="ApellidoP" style="ellipse;whiteSpace=wrap;html=1;align=center;" parent="1" vertex="1">
          <mxGeometry x="-180" y="138.5" width="100" height="40" as="geometry" />
        </mxCell>
        <mxCell id="zSAJrSSpQA3sfIf_E76h-27" value="" style="endArrow=none;html=1;rounded=0;entryX=0.5;entryY=0;entryDx=0;entryDy=0;exitX=0.5;exitY=1;exitDx=0;exitDy=0;" parent="1" source="zSAJrSSpQA3sfIf_E76h-26" target="zSAJrSSpQA3sfIf_E76h-1" edge="1">
          <mxGeometry relative="1" as="geometry">
            <mxPoint x="-90" y="112" as="sourcePoint" />
            <mxPoint x="-270" y="107" as="targetPoint" />
          </mxGeometry>
        </mxCell>
        <mxCell id="NTWdrNGo0tbO0YT77MBL-1" value="Tipo_Discapacidad" style="ellipse;whiteSpace=wrap;html=1;align=center;" parent="1" vertex="1">
          <mxGeometry x="495" y="20" width="100" height="40" as="geometry" />
        </mxCell>
        <mxCell id="NTWdrNGo0tbO0YT77MBL-2" value="" style="endArrow=none;html=1;rounded=0;entryX=0.5;entryY=1;entryDx=0;entryDy=0;exitX=0.5;exitY=0;exitDx=0;exitDy=0;" parent="1" source="b9QeyJM_cF_FELcdpsjT-1" target="NTWdrNGo0tbO0YT77MBL-1" edge="1">
          <mxGeometry relative="1" as="geometry">
            <mxPoint x="420" y="260" as="sourcePoint" />
            <mxPoint x="370" y="85" as="targetPoint" />
          </mxGeometry>
        </mxCell>
        <mxCell id="SUlAXN75sVVWagrfQKfY-1" value="Contacto" style="rounded=1;arcSize=10;whiteSpace=wrap;html=1;align=center;" parent="1" vertex="1">
          <mxGeometry x="1240" y="360" width="100" height="40" as="geometry" />
        </mxCell>
        <mxCell id="SUlAXN75sVVWagrfQKfY-3" value="ID_Contacto" style="ellipse;whiteSpace=wrap;html=1;align=center;fontStyle=4;" parent="1" vertex="1">
          <mxGeometry x="1260" y="260" width="100" height="40" as="geometry" />
        </mxCell>
        <mxCell id="SUlAXN75sVVWagrfQKfY-4" value="nombre" style="ellipse;whiteSpace=wrap;html=1;align=center;" parent="1" vertex="1">
          <mxGeometry x="1150" y="275" width="100" height="40" as="geometry" />
        </mxCell>
        <mxCell id="SUlAXN75sVVWagrfQKfY-5" value="mensaje" style="ellipse;whiteSpace=wrap;html=1;align=center;" parent="1" vertex="1">
          <mxGeometry x="1350" y="300" width="100" height="40" as="geometry" />
        </mxCell>
        <mxCell id="SUlAXN75sVVWagrfQKfY-6" value="correo" style="ellipse;whiteSpace=wrap;html=1;align=center;" parent="1" vertex="1">
          <mxGeometry x="1340" y="420" width="100" height="40" as="geometry" />
        </mxCell>
        <mxCell id="SUlAXN75sVVWagrfQKfY-7" value="hora" style="ellipse;whiteSpace=wrap;html=1;align=center;" parent="1" vertex="1">
          <mxGeometry x="1370" y="350" width="100" height="40" as="geometry" />
        </mxCell>
        <mxCell id="SUlAXN75sVVWagrfQKfY-9" value="" style="endArrow=none;html=1;rounded=0;entryX=0.5;entryY=0;entryDx=0;entryDy=0;exitX=0.5;exitY=1;exitDx=0;exitDy=0;" parent="1" source="SUlAXN75sVVWagrfQKfY-3" target="SUlAXN75sVVWagrfQKfY-1" edge="1">
          <mxGeometry relative="1" as="geometry">
            <mxPoint x="1300" y="315" as="sourcePoint" />
            <mxPoint x="1570" y="255" as="targetPoint" />
          </mxGeometry>
        </mxCell>
        <mxCell id="SUlAXN75sVVWagrfQKfY-10" value="" style="endArrow=none;html=1;rounded=0;entryX=0.5;entryY=0;entryDx=0;entryDy=0;exitX=1;exitY=1;exitDx=0;exitDy=0;" parent="1" source="SUlAXN75sVVWagrfQKfY-4" target="SUlAXN75sVVWagrfQKfY-1" edge="1">
          <mxGeometry relative="1" as="geometry">
            <mxPoint x="1295" y="305" as="sourcePoint" />
            <mxPoint x="1320" y="370" as="targetPoint" />
          </mxGeometry>
        </mxCell>
        <mxCell id="SUlAXN75sVVWagrfQKfY-11" value="" style="endArrow=none;html=1;rounded=0;entryX=1;entryY=0.5;entryDx=0;entryDy=0;exitX=0;exitY=0.5;exitDx=0;exitDy=0;" parent="1" source="SUlAXN75sVVWagrfQKfY-5" target="SUlAXN75sVVWagrfQKfY-1" edge="1">
          <mxGeometry relative="1" as="geometry">
            <mxPoint x="1305" y="315" as="sourcePoint" />
            <mxPoint x="1330" y="380" as="targetPoint" />
          </mxGeometry>
        </mxCell>
        <mxCell id="SUlAXN75sVVWagrfQKfY-12" value="" style="endArrow=none;html=1;rounded=0;exitX=0;exitY=0;exitDx=0;exitDy=0;entryX=1;entryY=0.5;entryDx=0;entryDy=0;" parent="1" source="SUlAXN75sVVWagrfQKfY-6" target="SUlAXN75sVVWagrfQKfY-1" edge="1">
          <mxGeometry relative="1" as="geometry">
            <mxPoint x="1389.9999999999914" y="561.75" as="sourcePoint" />
            <mxPoint x="1350" y="378.25" as="targetPoint" />
          </mxGeometry>
        </mxCell>
        <mxCell id="SUlAXN75sVVWagrfQKfY-13" value="" style="endArrow=none;html=1;rounded=0;entryX=1;entryY=0.5;entryDx=0;entryDy=0;exitX=-0.023;exitY=0.483;exitDx=0;exitDy=0;exitPerimeter=0;" parent="1" source="SUlAXN75sVVWagrfQKfY-7" target="SUlAXN75sVVWagrfQKfY-1" edge="1">
          <mxGeometry relative="1" as="geometry">
            <mxPoint x="1190" y="405" as="sourcePoint" />
            <mxPoint x="1270" y="390" as="targetPoint" />
          </mxGeometry>
        </mxCell>
        <mxCell id="SUlAXN75sVVWagrfQKfY-14" value="tiene" style="shape=rhombus;perimeter=rhombusPerimeter;whiteSpace=wrap;html=1;align=center;" parent="1" vertex="1">
          <mxGeometry x="990" y="350" width="120" height="60" as="geometry" />
        </mxCell>
        <mxCell id="SUlAXN75sVVWagrfQKfY-16" value="" style="endArrow=none;html=1;rounded=0;entryX=0.5;entryY=1;entryDx=0;entryDy=0;exitX=0;exitY=0.5;exitDx=0;exitDy=0;" parent="1" source="SUlAXN75sVVWagrfQKfY-14" target="vlWLqdfvvmI38JezlnJS-1" edge="1">
          <mxGeometry relative="1" as="geometry">
            <mxPoint x="860" y="380" as="sourcePoint" />
            <mxPoint x="806.5" y="300" as="targetPoint" />
            <Array as="points">
              <mxPoint x="860" y="380" />
            </Array>
          </mxGeometry>
        </mxCell>
        <mxCell id="SUlAXN75sVVWagrfQKfY-18" value="" style="endArrow=none;html=1;rounded=0;entryX=0;entryY=0.5;entryDx=0;entryDy=0;exitX=1;exitY=0.5;exitDx=0;exitDy=0;" parent="1" source="SUlAXN75sVVWagrfQKfY-14" target="SUlAXN75sVVWagrfQKfY-1" edge="1">
          <mxGeometry relative="1" as="geometry">
            <mxPoint x="1110" y="400" as="sourcePoint" />
            <mxPoint x="1165" y="451" as="targetPoint" />
          </mxGeometry>
        </mxCell>
        <mxCell id="SUlAXN75sVVWagrfQKfY-19" value="Responsable" style="ellipse;whiteSpace=wrap;html=1;align=center;fontStyle=0" parent="1" vertex="1">
          <mxGeometry x="-260" y="460" width="100" height="40" as="geometry" />
        </mxCell>
        <mxCell id="SUlAXN75sVVWagrfQKfY-20" value="" style="endArrow=none;html=1;rounded=0;entryX=0;entryY=0.5;entryDx=0;entryDy=0;exitX=1.008;exitY=0.427;exitDx=0;exitDy=0;exitPerimeter=0;" parent="1" source="SUlAXN75sVVWagrfQKfY-19" target="vlWLqdfvvmI38JezlnJS-22" edge="1">
          <mxGeometry relative="1" as="geometry">
            <mxPoint x="-140" y="430" as="sourcePoint" />
            <mxPoint x="-30" y="450" as="targetPoint" />
          </mxGeometry>
        </mxCell>
        <mxCell id="SUlAXN75sVVWagrfQKfY-21" value="Correo" style="ellipse;whiteSpace=wrap;html=1;align=center;fontStyle=0" parent="1" vertex="1">
          <mxGeometry x="-230" y="520" width="100" height="40" as="geometry" />
        </mxCell>
        <mxCell id="SUlAXN75sVVWagrfQKfY-22" value="" style="endArrow=none;html=1;rounded=0;entryX=0.5;entryY=1;entryDx=0;entryDy=0;exitX=1;exitY=0.5;exitDx=0;exitDy=0;" parent="1" source="SUlAXN75sVVWagrfQKfY-21" target="vlWLqdfvvmI38JezlnJS-22" edge="1">
          <mxGeometry relative="1" as="geometry">
            <mxPoint x="-149" y="487" as="sourcePoint" />
            <mxPoint x="-80" y="470" as="targetPoint" />
          </mxGeometry>
        </mxCell>
        <mxCell id="SUlAXN75sVVWagrfQKfY-23" value="ContraseÃ±a" style="ellipse;whiteSpace=wrap;html=1;align=center;fontStyle=0" parent="1" vertex="1">
          <mxGeometry x="60" y="375" width="100" height="40" as="geometry" />
        </mxCell>
        <mxCell id="SUlAXN75sVVWagrfQKfY-24" value="" style="endArrow=none;html=1;rounded=0;entryX=0.5;entryY=0;entryDx=0;entryDy=0;exitX=0;exitY=0.5;exitDx=0;exitDy=0;" parent="1" source="SUlAXN75sVVWagrfQKfY-23" target="vlWLqdfvvmI38JezlnJS-22" edge="1">
          <mxGeometry relative="1" as="geometry">
            <mxPoint x="40" y="365" as="sourcePoint" />
            <mxPoint x="-30" y="450" as="targetPoint" />
          </mxGeometry>
        </mxCell>
        <mxCell id="SUlAXN75sVVWagrfQKfY-25" value="" style="endArrow=none;html=1;rounded=0;exitX=0;exitY=0.5;exitDx=0;exitDy=0;entryX=1;entryY=0.5;entryDx=0;entryDy=0;" parent="1" source="zSAJrSSpQA3sfIf_E76h-13" target="zSAJrSSpQA3sfIf_E76h-1" edge="1">
          <mxGeometry relative="1" as="geometry">
            <mxPoint x="345" y="280" as="sourcePoint" />
            <mxPoint x="-150" y="280" as="targetPoint" />
            <Array as="points" />
          </mxGeometry>
        </mxCell>
        <mxCell id="SUlAXN75sVVWagrfQKfY-26" value="1" style="edgeLabel;html=1;align=center;verticalAlign=middle;resizable=0;points=[];" parent="SUlAXN75sVVWagrfQKfY-25" vertex="1" connectable="0">
          <mxGeometry x="-0.823" y="2" relative="1" as="geometry">
            <mxPoint as="offset" />
          </mxGeometry>
        </mxCell>
        <mxCell id="LhTzIwXpm-AoTP-_M_l4-1" value="ContraseÃ±a" style="ellipse;whiteSpace=wrap;html=1;align=center;" parent="1" vertex="1">
          <mxGeometry x="-490" y="250" width="100" height="40" as="geometry" />
        </mxCell>
        <mxCell id="LhTzIwXpm-AoTP-_M_l4-2" value="" style="endArrow=none;html=1;rounded=0;entryX=0;entryY=0.5;entryDx=0;entryDy=0;exitX=1;exitY=0.5;exitDx=0;exitDy=0;" parent="1" source="LhTzIwXpm-AoTP-_M_l4-1" target="zSAJrSSpQA3sfIf_E76h-1" edge="1">
          <mxGeometry relative="1" as="geometry">
            <mxPoint x="-380" y="229" as="sourcePoint" />
            <mxPoint x="-200" y="260" as="targetPoint" />
          </mxGeometry>
        </mxCell>
        <mxCell id="LhTzIwXpm-AoTP-_M_l4-3" value="Correo" style="ellipse;whiteSpace=wrap;html=1;align=center;" parent="1" vertex="1">
          <mxGeometry x="-470" y="310" width="100" height="40" as="geometry" />
        </mxCell>
        <mxCell id="LhTzIwXpm-AoTP-_M_l4-5" value="" style="endArrow=none;html=1;rounded=0;entryX=0;entryY=0.5;entryDx=0;entryDy=0;exitX=1;exitY=0.5;exitDx=0;exitDy=0;" parent="1" source="LhTzIwXpm-AoTP-_M_l4-3" target="zSAJrSSpQA3sfIf_E76h-1" edge="1">
          <mxGeometry relative="1" as="geometry">
            <mxPoint x="-380" y="280" as="sourcePoint" />
            <mxPoint x="-250" y="280" as="targetPoint" />
          </mxGeometry>
        </mxCell>
      </root>
    </mxGraphModel>
  </diagram>
</mxfile>
